<?xml version="1.0" standalone="no"?>
<svg xmlns:xlink="http://www.w3.org/1999/xlink" id="wave" style="transform:rotate(0deg); transition: 0.3s" viewBox="0 0 1440 490" version="1.1" xmlns="http://www.w3.org/2000/svg"><defs><linearGradient id="sw-gradient-0" x1="0" x2="0" y1="1" y2="0"><stop stop-color="rgba(69.839, 122.728, 102.605, 1)" offset="0%" data-darkreader-inline-stopcolor="" style="--darkreader-inline-stopcolor:#386252;"/><stop stop-color="rgba(58.563, 131.835, 51.191, 1)" offset="100%" data-darkreader-inline-stopcolor="" style="--darkreader-inline-stopcolor:#2f6a29;"/></linearGradient></defs><path style="transform:translate(0, 0px); opacity:1" fill="url(#sw-gradient-0)" d="M0,392L26.7,334.8C53.3,278,107,163,160,138.8C213.3,114,267,180,320,204.2C373.3,229,427,212,480,228.7C533.3,245,587,294,640,277.7C693.3,261,747,180,800,130.7C853.3,82,907,65,960,114.3C1013.3,163,1067,278,1120,310.3C1173.3,343,1227,294,1280,294C1333.3,294,1387,343,1440,326.7C1493.3,310,1547,229,1600,171.5C1653.3,114,1707,82,1760,114.3C1813.3,147,1867,245,1920,285.8C1973.3,327,2027,310,2080,285.8C2133.3,261,2187,229,2240,187.8C2293.3,147,2347,98,2400,138.8C2453.3,180,2507,310,2560,334.8C2613.3,359,2667,278,2720,212.3C2773.3,147,2827,98,2880,73.5C2933.3,49,2987,49,3040,114.3C3093.3,180,3147,310,3200,359.3C3253.3,408,3307,376,3360,302.2C3413.3,229,3467,114,3520,65.3C3573.3,16,3627,33,3680,32.7C3733.3,33,3787,16,3813,8.2L3840,0L3840,490L3813.3,490C3786.7,490,3733,490,3680,490C3626.7,490,3573,490,3520,490C3466.7,490,3413,490,3360,490C3306.7,490,3253,490,3200,490C3146.7,490,3093,490,3040,490C2986.7,490,2933,490,2880,490C2826.7,490,2773,490,2720,490C2666.7,490,2613,490,2560,490C2506.7,490,2453,490,2400,490C2346.7,490,2293,490,2240,490C2186.7,490,2133,490,2080,490C2026.7,490,1973,490,1920,490C1866.7,490,1813,490,1760,490C1706.7,490,1653,490,1600,490C1546.7,490,1493,490,1440,490C1386.7,490,1333,490,1280,490C1226.7,490,1173,490,1120,490C1066.7,490,1013,490,960,490C906.7,490,853,490,800,490C746.7,490,693,490,640,490C586.7,490,533,490,480,490C426.7,490,373,490,320,490C266.7,490,213,490,160,490C106.7,490,53,490,27,490L0,490Z"/></svg>